<svg width="108" height="24" viewBox="0 0 108 24" fill="none" xmlns="http://www.w3.org/2000/svg">
<path d="M28.224 6.776H26.096V8.904C26.096 11.704 24.976 14.568 22.48 15.72L23.792 17.416C25.44 16.584 26.544 15.048 27.184 13.16C27.792 14.936 28.864 16.376 30.48 17.16L31.728 15.48C29.296 14.392 28.224 11.688 28.224 8.904V6.776ZM32.944 5.624V10.248H30.112V11.944H32.944V20.408H35.056V5.624H32.944ZM43.4227 7.32C45.5668 7.32 46.5747 7.624 46.5747 8.28C46.5747 8.968 45.5668 9.256 43.4227 9.256C41.2947 9.256 40.2867 8.968 40.2867 8.28C40.2867 7.624 41.2947 7.32 43.4227 7.32ZM43.4227 10.792C46.7987 10.792 48.7668 9.912 48.7668 8.28C48.7668 6.664 46.7987 5.768 43.4227 5.768C40.0627 5.768 38.0947 6.664 38.0947 8.28C38.0947 9.912 40.0627 10.792 43.4227 10.792ZM50.0788 13.096V11.432H36.7667V13.096H42.3507V14.056H38.2867V15.608H46.3828V16.392H38.3027V20.264H48.8468V18.68H40.3987V17.848H48.4628V14.056H44.4628V13.096H50.0788ZM56.3815 15.256H53.4855V11.992H56.3815V15.256ZM61.1015 5.624V10.808H58.4615V6.792H56.3815V10.344H53.4855V6.792H51.3895V16.936H58.4615V12.504H61.1015V20.408H63.2135V5.624H61.1015ZM77.8043 12.568C74.4763 12.008 72.6523 9.72 72.6523 7.56V6.504H70.3963V7.56C70.3963 9.672 68.5563 12.008 65.2443 12.568L66.1403 14.344C68.7003 13.848 70.5723 12.408 71.5163 10.536C72.4603 12.408 74.3483 13.832 76.9083 14.344L77.8043 12.568ZM64.9243 16.872V18.584H78.2683V16.872H64.9243ZM90.939 11.656H82.747V10.552H90.475V8.952H82.747V7.88H90.795V6.216H80.651V13.32H90.939V11.656ZM92.331 14.376H78.987V16.088H84.587V20.392H86.699V16.088H92.331V14.376ZM97.1138 15.272C96.0418 15.272 95.3218 14.104 95.3218 11.912C95.3218 9.736 96.0418 8.568 97.1138 8.568C98.2018 8.568 98.9218 9.736 98.9218 11.912C98.9218 14.104 98.2018 15.272 97.1138 15.272ZM103.338 5.624V10.936H100.874C100.586 8.28 99.0978 6.664 97.1138 6.664C94.9218 6.664 93.3058 8.68 93.3058 11.912C93.3058 15.16 94.9218 17.192 97.1138 17.192C99.1618 17.192 100.666 15.464 100.89 12.648H103.338V20.408H105.45V5.624H103.338Z" fill="black"/>
<circle cx="10" cy="14" r="10" fill="white"/>
<path fill-rule="evenodd" clip-rule="evenodd" d="M4 5.99902C1.57031 7.82349 0 10.7283 0 14C0 19.5228 4.47656 24 10 24C15.5234 24 20 19.5228 20 14C20 8.47717 15.5234 4 10 4C9.31445 4 8.64648 4.06885 8 4.19995V15C8.00195 15.3953 8.11914 15.7817 8.33789 16.1105C8.55859 16.4392 8.86914 16.6953 9.23438 16.8467C9.59961 16.9979 10.002 17.0375 10.3906 16.9603C10.7773 16.8833 11.1348 16.6929 11.4141 16.4133C11.5352 16.2927 11.6387 16.158 11.7246 16.0126C11.8359 15.8208 11.916 15.6105 11.9609 15.3899C12.0078 15.1554 12.0117 14.9156 11.9746 14.682C11.9492 14.5294 11.9062 14.3794 11.8457 14.2351C11.6953 13.8699 11.4395 13.5577 11.1113 13.338C10.7812 13.1184 10.3945 13.0012 10 13H9V9H10C11.1875 9 12.3477 9.35193 13.334 10.0112C14.3203 10.6704 15.0898 11.6075 15.543 12.7039C15.998 13.8003 16.1172 15.0067 15.8848 16.1705C15.6523 17.3345 15.082 18.4036 14.2422 19.2427C13.4043 20.0818 12.334 20.6532 11.1699 20.8848C10.0059 21.1162 8.80078 20.9974 7.70312 20.5433C6.60742 20.0891 5.66992 19.3201 5.01172 18.3334C4.70898 17.8796 4.4707 17.3893 4.30078 16.8766C4.10156 16.2742 4 15.641 4 15V5.99902Z" fill="#FABC1D"/>
</svg>
