<svg width="48" height="48" viewBox="0 0 48 48" fill="none" xmlns="http://www.w3.org/2000/svg">
<g clip-path="url(#clip0_1157_1992)">
<rect opacity="0.6" x="6" y="6" width="36" height="36" rx="2" stroke="#A5A5A5" stroke-width="0.04"/>
<rect opacity="0.6" x="4" y="4" width="40" height="40" rx="10" stroke="#A5A5A5" stroke-width="0.04"/>
<rect opacity="0.6" x="14" y="14" width="20" height="20" rx="10" stroke="#A5A5A5" stroke-width="0.04"/>
<rect opacity="0.6" x="4" y="8" width="40" height="32" rx="2" stroke="#A5A5A5" stroke-width="0.04"/>
<rect opacity="0.6" x="8" y="44" width="40" height="32" rx="2" transform="rotate(-90 8 44)" stroke="#A5A5A5" stroke-width="0.04"/>
<path opacity="0.6" d="M48 0L0 48" stroke="#A5A5A5" stroke-width="0.04"/>
<path opacity="0.6" d="M0 0L48 48" stroke="#A5A5A5" stroke-width="0.04"/>
<path d="M5 7C5 5.89543 5.89543 5 7 5H31C32.1046 5 33 5.89543 33 7V43H5V7Z" stroke="black" stroke-width="2"/>
<rect x="9" y="9" width="4" height="4" rx="1" stroke="black" stroke-width="2"/>
<rect x="9" y="17" width="4" height="4" rx="1" stroke="#FABC1D" stroke-width="2"/>
<rect x="9" y="25" width="4" height="4" rx="1" stroke="black" stroke-width="2"/>
<rect x="17" y="9" width="4" height="4" rx="1" stroke="#FABC1D" stroke-width="2"/>
<rect x="17" y="17" width="4" height="4" rx="1" stroke="black" stroke-width="2"/>
<rect x="17" y="25" width="4" height="4" rx="1" stroke="black" stroke-width="2"/>
<rect x="25" y="9" width="4" height="4" rx="1" stroke="black" stroke-width="2"/>
<rect x="25" y="17" width="4" height="4" rx="1" stroke="black" stroke-width="2"/>
<rect x="25" y="25" width="4" height="4" rx="1" stroke="#FABC1D" stroke-width="2"/>
<rect x="15" y="33" width="8" height="10" rx="1" stroke="black" stroke-width="2"/>
<rect x="33" y="31" width="10" height="4" rx="1" stroke="black" stroke-width="2"/>
<rect x="33" y="23" width="10" height="4" rx="1" stroke="black" stroke-width="2"/>
<path d="M33 19H41C42.1046 19 43 19.8954 43 21V43H33V19Z" stroke="black" stroke-width="2"/>
<path d="M38 15V19" stroke="black" stroke-width="2" stroke-linecap="round"/>
</g>
<defs>
<clipPath id="clip0_1157_1992">
<rect width="48" height="48" fill="white"/>
</clipPath>
</defs>
</svg>
